<?xml version="1.0" encoding="utf-8"?>
<!-- Generator: Adobe Illustrator 25.4.1, SVG Export Plug-In . SVG Version: 6.00 Build 0)  -->
<svg version="1.1" id="Layer_1" xmlns="http://www.w3.org/2000/svg" xmlns:xlink="http://www.w3.org/1999/xlink" x="0px" y="0px"
	 viewBox="0 0 20 18" style="enable-background:new 0 0 20 18;" xml:space="preserve">
<path d="M16,0H4C3.5,0,3.1,0.3,3,0.8l-3,16c-0.1,0.5,0.3,1.1,0.8,1.2c0.1,0,0.1,0,0.2,0h18c0.6,0,1-0.4,1-1c0-0.1,0-0.1,0-0.2l-3-16
	C16.9,0.3,16.5,0,16,0z M2.2,16L4.8,2h10.3l2.6,14H2.2z M14,4.5c0,2.2-1.8,4-4,4s-4-1.8-4-4c0-0.6,0.4-1,1-1s1,0.4,1,1
	c0,1.1,0.9,2,2,2s2-0.9,2-2c0-0.6,0.4-1,1-1S14,3.9,14,4.5z"/>
</svg>
