<svg width="2043" height="2804" viewBox="0 0 2043 2804" fill="none" xmlns="http://www.w3.org/2000/svg">
<g clip-path="url(#clip0_2_1275)">
<path d="M1747.6 1936.3H458.4C413.2 1936.3 372.8 1906 360.2 1862.6L147.3 1130.8C147 1129.9 147.2 1129 147.8 1128.2C148.4 1127.5 149.2 1127 150.2 1127H1912.6C1980 1127 2029.1 1191.1 2011.3 1256.2L1846.4 1860.9C1834.1 1905.3 1793.6 1936.3 1747.6 1936.3ZM154 1132.9L365.8 1861C377.7 1901.9 415.8 1930.5 458.4 1930.5H1747.6C1791 1930.5 1829.2 1901.3 1840.6 1859.5L2005.5 1254.8C2022.2 1193.5 1976.1 1133 1912.5 1133H154V1132.9Z" fill="black"/>
<path d="M826.3 1934.2L592.6 1130.8C592.1 1129.2 593 1127.6 594.6 1127.2C596.2 1126.7 597.8 1127.6 598.2 1129.2L832 1932.5C832.5 1934.1 831.6 1935.7 830 1936.1C828.5 1936.6 826.8 1935.8 826.3 1934.2Z" fill="black"/>
<path d="M1014.4 2746.4H892.2C853.2 2746.4 819 2721.5 807.1 2684.4L566.1 1934.3C565.6 1932.8 566.5 1931.1 568 1930.6C569.6 1930.1 571.2 1931 571.7 1932.5L812.7 2682.6C823.8 2717.3 855.8 2740.6 892.2 2740.6H1014.4C1016 2740.6 1017.3 2741.9 1017.3 2743.5C1017.3 2745.1 1016 2746.4 1014.4 2746.4Z" fill="black"/>
<path d="M1722.2 2746.4H1596.2C1557.2 2746.4 1523 2721.5 1511.1 2684.4L1270.1 1934.3C1269.6 1932.8 1270.5 1931.1 1272 1930.6C1273.6 1930.1 1275.2 1931 1275.7 1932.5L1516.7 2682.6C1527.8 2717.3 1559.8 2740.6 1596.2 2740.6H1722.2C1723.8 2740.6 1725.1 2741.9 1725.1 2743.5C1725.2 2745.1 1723.8 2746.4 1722.2 2746.4Z" fill="black"/>
<path d="M1841.3 2743.5C1841.3 2776.4 1814.6 2803.1 1781.7 2803.1C1748.8 2803.1 1722.1 2776.4 1722.1 2743.5C1722.1 2710.6 1748.8 2683.9 1781.7 2683.9C1814.6 2683.9 1841.3 2710.6 1841.3 2743.5Z" fill="#F9F6F2"/>
<path d="M1923.5 2746.4H1797.5C1758.5 2746.4 1724.3 2721.5 1712.4 2684.4L1471.4 1934.3C1470.9 1932.8 1471.8 1931.1 1473.3 1930.6C1474.9 1930.1 1476.5 1931 1477 1932.5L1718 2682.6C1729.1 2717.3 1761.1 2740.6 1797.5 2740.6H1923.5C1925.1 2740.6 1926.4 2741.9 1926.4 2743.5C1926.5 2745.1 1925.2 2746.4 1923.5 2746.4Z" fill="black"/>
<path d="M2042.6 2743.5C2042.6 2776.4 2015.9 2803.1 1983 2803.1C1950.1 2803.1 1923.4 2776.4 1923.4 2743.5C1923.4 2710.6 1950.1 2683.9 1983 2683.9C2015.9 2683.9 2042.6 2710.6 2042.6 2743.5Z" fill="#AD7C5D"/>
<path d="M1133.6 2743.5C1133.6 2776.4 1106.9 2803.1 1074 2803.1C1041.1 2803.1 1014.4 2776.4 1014.4 2743.5C1014.4 2710.6 1041.1 2683.9 1074 2683.9C1106.9 2683.9 1133.6 2710.6 1133.6 2743.5Z" fill="#F9F6F2"/>
<path d="M1226.9 2746.4H1104.7C1065.7 2746.4 1031.5 2721.5 1019.6 2684.4L778.6 1934.3C778.1 1932.8 779 1931.1 780.5 1930.6C782.1 1930.1 783.7 1931 784.2 1932.5L1025.2 2682.6C1036.3 2717.3 1068.3 2740.6 1104.7 2740.6H1226.9C1228.5 2740.6 1229.8 2741.9 1229.8 2743.5C1229.9 2745.1 1228.5 2746.4 1226.9 2746.4Z" fill="black"/>
<path d="M1346.2 2743.5C1346.2 2776.4 1319.5 2803.1 1286.6 2803.1C1253.7 2803.1 1227 2776.4 1227 2743.5C1227 2710.6 1253.7 2683.9 1286.6 2683.9C1319.5 2683.9 1346.2 2710.6 1346.2 2743.5Z" fill="#AD7C5D"/>
<path d="M1639.5 1325.6V1721.6C1639.5 1744.5 1620.9 1763.1 1598 1763.1C1575.1 1763.1 1556.5 1744.5 1556.5 1721.6V1325.6C1556.5 1302.7 1575.1 1284.1 1598 1284.1C1621 1284.2 1639.5 1302.7 1639.5 1325.6Z" fill="white"/>
<path d="M1437.7 1325.6V1721.6C1437.7 1744.5 1419.1 1763.1 1396.2 1763.1C1373.3 1763.1 1354.7 1744.5 1354.7 1721.6V1325.6C1354.7 1302.7 1373.3 1284.1 1396.2 1284.1C1419.2 1284.2 1437.7 1302.7 1437.7 1325.6Z" fill="white"/>
<path d="M1235.9 1325.6V1721.6C1235.9 1744.5 1217.3 1763.1 1194.4 1763.1C1171.5 1763.1 1152.9 1744.5 1152.9 1721.6V1325.6C1152.9 1302.7 1171.5 1284.1 1194.4 1284.1C1217.3 1284.2 1235.9 1302.7 1235.9 1325.6Z" fill="white"/>
<path d="M1034.1 1325.6V1721.6C1034.1 1744.5 1015.5 1763.1 992.6 1763.1C969.7 1763.1 951.1 1744.5 951.1 1721.6V1325.6C951.1 1302.7 969.7 1284.1 992.6 1284.1C1015.5 1284.2 1034.1 1302.7 1034.1 1325.6Z" fill="white"/>
<path d="M595.4 1132.9H150.1C148.9 1132.9 147.9 1132.2 147.4 1131.1L5.79983 805.4C-14.0002 759.9 19.2998 708.9 69.0998 708.9H380.2C408.4 708.9 433.4 725.7 444.1 751.8L598.2 1128.8C598.6 1129.7 598.5 1130.7 597.9 1131.5C597.3 1132.4 596.4 1132.9 595.4 1132.9ZM152 1127H591L438.6 754C428.9 730.2 405.9 714.8 380.2 714.8H69.0998C23.5998 714.8 -6.90017 761.4 11.1998 803.1L152 1127Z" fill="black"/>
<path d="M992.6 1003.4V1129.9H659.7V1003.4C659.7 995.4 666.2 988.9 674.2 988.9H978.2C986.2 988.9 992.6 995.4 992.6 1003.4Z" fill="#F9F6F2"/>
<path d="M995.6 1132.9H656.8V1003.4C656.8 993.8 664.6 986 674.2 986H978.2C987.8 986 995.6 993.8 995.6 1003.4V1132.9ZM662.6 1127H989.7V1003.4C989.7 997 984.5 991.9 978.2 991.9H674.2C667.8 991.9 662.7 997.1 662.7 1003.4V1127H662.6Z" fill="black"/>
<path d="M1733.1 991.901V1129.9H1050.3V991.901C1050.3 973.801 1065 959.101 1083.1 959.101H1700.3C1718.4 959.101 1733.1 973.801 1733.1 991.901Z" fill="white"/>
<path d="M1736.1 1132.9H1047.5V991.9C1047.5 972.2 1063.5 956.2 1083.2 956.2H1700.4C1720.1 956.2 1736.1 972.2 1736.1 991.9V1132.9ZM1053.3 1127H1730.2V991.9C1730.2 975.5 1716.8 962.1 1700.4 962.1H1083.2C1066.8 962.1 1053.4 975.5 1053.4 991.9V1127H1053.3Z" fill="black"/>
<path d="M1437.7 911.2V1129.9H918.6V911.2C918.6 898.7 928.7 888.7 941.1 888.7H1415.2C1427.6 888.7 1437.7 898.8 1437.7 911.2Z" fill="#AD7C5D"/>
<path d="M1440.7 1132.9H915.7V911.2C915.7 897.1 927.1 885.7 941.2 885.7H1415.3C1429.3 885.7 1440.8 897.1 1440.8 911.2V1132.9H1440.7ZM921.5 1127H1434.8V911.2C1434.8 900.4 1426 891.6 1415.2 891.6H941.1C930.3 891.6 921.5 900.4 921.5 911.2V1127Z" fill="black"/>
<path d="M328.9 720.9C328.9 730.5 321.1 738.2 311.6 738.2H82.4997C72.8997 738.2 65.1997 730.4 65.1997 720.9C65.1997 711.3 72.9997 703.6 82.4997 703.6H311.6C321.1 703.5 328.9 711.3 328.9 720.9Z" fill="#AD7C5D"/>
<path d="M311.5 741.1H82.4997C71.2997 741.1 62.1997 732 62.1997 720.8C62.1997 709.6 71.2997 700.5 82.4997 700.5H311.6C322.8 700.5 331.9 709.6 331.9 720.8C331.9 732 322.7 741.1 311.5 741.1ZM82.4997 706.5C74.5997 706.5 68.0997 713 68.0997 720.9C68.0997 728.8 74.5997 735.3 82.4997 735.3H311.6C319.5 735.3 326 728.8 326 720.9C326 713 319.5 706.5 311.6 706.5H82.4997Z" fill="black"/>
<path d="M1319.69 67.8703L1197.41 226.767L1356.3 349.052L1478.59 190.155L1319.69 67.8703Z" fill="black"/>
<path d="M1304.51 0.000898382L1104.01 1.00098L1105.01 201.501L1305.51 200.501L1304.51 0.000898382Z" fill="#AD7C5D"/>
</g>
<defs>
<clipPath id="clip0_2_1275">
<rect width="2042.6" height="2803.1" fill="white"/>
</clipPath>
</defs>
</svg>
